# xmcd
#
# Track frame offsets: 
#        150
#        18059
#        41931
#        55058
#        70414
#        90528
#        103056
#        119172
#        140199
#        162277
#        177557
#        195853
#        213933
#        236903
#        250984
#        274651
#        290502
#
# Disc length: 4105 seconds
#
# Revision: 0
# Processed by: cddbd v1.5.2PL0 Copyright (c) Steve Scherf et al.
# Submitted via: ExactAudioCopy v0.95b3
#
DISCID=05100711
DTITLE=Hofbluesband - Alles Gute
DYEAR=2001
DGENRE=Ost-Blues
TTITLE0=Mistery Train
TTITLE1=Hey Baby
TTITLE2=I Ain't Got No Woman
TTITLE3=Little Baby
TTITLE4=Nur Ein Traum
TTITLE5=Stand Up
TTITLE6=Route 66
TTITLE7=Hannibal
TTITLE8=It Hurts Me Too
TTITLE9=You Never Can Tell
TTITLE10=Ain't No Sunshine
TTITLE11=Harley Davidson Blues
TTITLE12=Going Up The Country
TTITLE13=Alles Gute
TTITLE14=Summertime
TTITLE15=Mein Chef
TTITLE16=Mein Urologe
EXTD=
EXTT0=
EXTT1=
EXTT2=
EXTT3=
EXTT4=
EXTT5=
EXTT6=
EXTT7=
EXTT8=
EXTT9=
EXTT10=
EXTT11=
EXTT12=
EXTT13=
EXTT14=
EXTT15=
EXTT16=
PLAYORDER=
